<svg width="115" height="40" viewBox="0 0 115 40" fill="none" xmlns="http://www.w3.org/2000/svg">
<path fill-rule="evenodd" clip-rule="evenodd" d="M0.0759007 9.30383L0.151801 18.5772H1.44556H2.73933L2.81925 14.6234L2.89918 10.6697H9.64744H16.3957V14.6953V18.721H17.6895H18.9832V9.37572V0.0304799H17.6895H16.3957V3.91235V7.79422H9.63939H2.88308V3.91235V0.0304799H1.44154H0L0.0759007 9.30383ZM21.2833 0.163901C21.2833 0.237225 23.1592 2.83635 25.452 5.93983L29.6208 11.5823V15.1675V18.7526L30.9865 18.6649L32.3521 18.5772L32.4959 14.9279L32.6396 11.2784L36.5209 6.04076C38.6556 3.16013 40.5057 0.62915 40.6322 0.416654C40.8133 0.11243 40.5273 0.0304799 39.2841 0.0304799H37.706L34.454 4.18782C32.6655 6.47409 31.1374 8.34976 31.0584 8.35551C30.9793 8.36126 29.4268 6.49135 27.6083 4.19989L24.302 0.0339304L22.7926 0.0322051C21.9623 0.0313425 21.2833 0.0905769 21.2833 0.163901ZM44.2835 1.46332V2.89616L51.5429 2.97294L58.8024 3.04971L58.8903 4.76291C58.9386 5.7052 58.9039 6.77285 58.813 7.13516L58.6477 7.79422H51.3218H43.996V9.08357V10.3726L51.6867 10.4494L59.3774 10.5259V13.1138V15.7017L51.8304 15.7785L44.2835 15.855V17.2881V18.721H51.7678C60.1073 18.721 60.804 18.5976 61.8137 16.941C62.5692 15.7017 62.6454 11.2344 61.939 9.58218C61.6093 8.81069 61.4937 7.6976 61.5236 5.58184C61.5543 3.41403 61.4474 2.42286 61.1133 1.77675C60.2609 0.127958 59.7316 0.0304799 51.6292 0.0304799H44.2835V1.46332ZM67.8587 1.31207V2.61839H77.0588C82.9023 2.61839 86.2589 2.51516 86.2589 2.33545C86.2589 2.1796 85.8817 1.62981 85.4202 1.11338L84.5819 0.174253L76.2202 0.0900018L67.8587 0.00546337V1.31207ZM92.2965 9.37572V18.721H93.5902H94.884V9.37572V0.0304799H93.5902H92.2965V9.37572ZM100.059 1.3092V2.61839L105.45 2.62242C108.415 2.62443 111.134 2.70494 111.493 2.80098L112.145 2.97581L112.068 9.33891L111.99 15.7017L106.025 15.7794L100.059 15.8573V17.3091V18.7612L106.364 18.6692C115.262 18.5392 114.967 18.859 114.993 9.29463C115.018 -0.135723 115.334 0.206745 106.498 0.0871264L100.059 0V1.3092ZM67.9248 12.6106L68.0025 18.5772H69.2962H70.59L70.6711 15.3595L70.7521 12.1419L74.1211 12.0528C78.0096 11.9498 77.3032 11.5409 80.9993 16.0338L83.2099 18.721H84.7343C85.765 18.721 86.2575 18.6045 86.254 18.3615C86.2514 18.164 85.1575 16.7081 83.8232 15.1266C82.4886 13.5451 81.3912 12.1543 81.384 12.0355C81.3771 11.9168 82.0542 11.8199 82.8885 11.8199C83.826 11.8199 84.6618 11.6407 85.0752 11.3509C85.9354 10.7485 86.5464 9.27536 86.5464 7.80342V6.64403H85.1253H83.7044L83.6159 7.8661L83.5276 9.08817H77.2026H70.8775L70.7892 7.8661L70.7007 6.64403H69.2738H67.8469L67.9248 12.6106ZM0.346441 26.022C0.397616 26.2423 1.539 29.4743 2.88308 33.2044L5.32685 39.9867L6.23191 39.993L7.13726 39.9993L8.8939 35.183C9.85991 32.5338 10.813 30.0037 11.0119 29.56C11.3578 28.7882 11.459 28.9907 13.3858 34.3045L15.3987 39.8556H16.3601H17.3215L19.8736 32.8107C21.2772 28.936 22.4272 25.7336 22.4292 25.6939C22.4315 25.6543 21.9342 25.6221 21.3241 25.6221H20.2149L18.4062 30.5822C17.4115 33.3102 16.5182 35.6344 16.4213 35.7471C16.3244 35.8598 15.4055 33.6279 14.3797 30.7872L12.5144 25.6223L11.3233 25.6221C10.6339 25.6221 10.0752 25.7736 9.99733 25.9815C9.92287 26.1793 9.11441 28.4113 8.20044 30.9417C7.28647 33.4721 6.45358 35.6396 6.3495 35.758C6.24542 35.8768 5.32599 33.646 4.30622 30.8008L2.45182 25.6275L1.3527 25.6246C0.559768 25.6229 0.279165 25.7336 0.346441 26.022ZM24.4458 32.8107V39.9993H25.452H26.4583V32.8107V25.6221H25.452H24.4458V32.8107ZM29.9115 27.2522L29.9147 28.9288L34.5469 34.4641L39.1792 39.9993H40.4376H41.696V32.8107V25.6221H40.6897H39.6834V31.2292C39.6834 34.3131 39.5863 36.8277 39.4678 36.8171C39.3494 36.8064 37.15 34.2726 34.5803 31.1866L29.9083 25.5758L29.9115 27.2522ZM46.0085 26.6213V27.6205L50.6804 27.6996L55.3523 27.7787V32.8107V37.8428L50.6804 37.9218L46.0085 38.0009V39.0001V39.9993H51.0007H55.9926L56.7508 39.2414L57.5086 38.4831V32.7584C57.5086 25.1381 57.9465 25.6221 51.0527 25.6221H46.0085V26.6213ZM60.5363 26.5267L59.7753 27.431L59.8638 33.0218L59.9524 38.6125L60.7591 39.3061C61.552 39.9876 61.6613 39.9993 67.1782 39.9993H72.7905L73.6309 39.1588L74.4713 38.3184V32.9576C74.4713 27.5472 74.3436 26.7564 73.3463 25.9907C73.0234 25.7428 71.1963 25.6376 67.0937 25.6313L61.2973 25.6221L60.5363 26.5267ZM75.9088 25.8346C75.9088 25.9513 77.041 29.1842 78.4244 33.0189L80.9401 39.991L81.8472 39.9953C82.8491 39.9996 82.6481 40.4218 85.6106 32.0918C86.1732 30.5103 86.7108 29.1261 86.8054 29.0154C86.9003 28.905 87.8833 31.2988 88.9902 34.335L91.0027 39.8556H91.9584H92.914L95.4731 32.8107C96.8804 28.936 98.0353 25.7336 98.0393 25.6939C98.0672 25.4176 95.7801 25.6951 95.6706 25.9815C95.5947 26.1793 94.7903 28.4113 93.8826 30.9417C92.9752 33.4721 92.1492 35.6338 92.0472 35.7454C91.9451 35.8573 91.0214 33.6265 89.9947 30.7884L88.1277 25.6284L86.9365 25.6252C86.2448 25.6235 85.6888 25.7727 85.6106 25.9815C85.5361 26.1793 84.7277 28.4113 83.8137 30.9417C82.8997 33.4721 82.0668 35.6396 81.9627 35.758C81.8587 35.8768 80.9392 33.646 79.9195 30.8008L78.0651 25.6275L76.9869 25.6246C76.3941 25.6232 75.9088 25.7175 75.9088 25.8346ZM100.765 26.328C100.125 26.9681 100.059 27.2642 100.059 29.5097C100.059 30.8715 100.199 32.2471 100.37 32.5663C100.977 33.7015 102.31 33.9609 107.538 33.9609H112.448L112.363 35.9018L112.278 37.8428L108.325 37.9227L104.372 38.0026V39.001V39.9993H108.697C112.906 39.9993 113.042 39.9804 113.728 39.2934C114.377 38.6447 114.434 38.3707 114.434 35.8932C114.434 33.3694 114.387 33.1543 113.693 32.5013C112.977 31.8273 112.774 31.7994 107.584 31.6605L102.215 31.5167V29.6477V27.7787L106.168 27.6987L110.122 27.6188V26.6204V25.6221H105.796C101.587 25.6221 101.451 25.641 100.765 26.328ZM72.106 32.7388L72.0275 37.8428H67.14H62.2524L62.1739 32.7388L62.0954 27.6349H67.14H72.1845L72.106 32.7388Z" fill="#E50102"/>
</svg>
