<svg width="549" height="229" viewBox="0 0 549 229" fill="none" xmlns="http://www.w3.org/2000/svg">
<path d="M10 0L1.33975 15H18.6603L10 0ZM11.5 229V13.5H8.5V229H11.5Z" fill="white" fill-opacity="0.55"/>
<path d="M549 219L534 210.34V227.66L549 219ZM0 220.5L535.5 220.5V217.5L0 217.5V220.5Z" fill="white" fill-opacity="0.55"/>
<g filter="url(#filter0_b_738_4981)">
<rect x="50" y="146" width="187" height="53" rx="5" fill="white" fill-opacity="0.55"/>
<path d="M122.184 163.008H128.16C129.248 163.008 130.144 163.16 130.848 163.464C131.552 163.752 132.104 164.128 132.504 164.592C132.92 165.04 133.208 165.552 133.368 166.128C133.528 166.688 133.608 167.232 133.608 167.76C133.608 168.288 133.528 168.84 133.368 169.416C133.208 169.976 132.92 170.488 132.504 170.952C132.104 171.4 131.552 171.776 130.848 172.08C130.144 172.368 129.248 172.512 128.16 172.512H124.488V180H122.184V163.008ZM124.488 170.496H127.512C127.96 170.496 128.4 170.464 128.832 170.4C129.28 170.32 129.672 170.184 130.008 169.992C130.36 169.8 130.64 169.528 130.848 169.176C131.056 168.808 131.16 168.336 131.16 167.76C131.16 167.184 131.056 166.72 130.848 166.368C130.64 166 130.36 165.72 130.008 165.528C129.672 165.336 129.28 165.208 128.832 165.144C128.4 165.064 127.96 165.024 127.512 165.024H124.488V170.496ZM134.083 163.008H136.747L141.739 176.832H141.787L146.971 163.008H149.491L142.795 180H140.635L134.083 163.008ZM163.36 166.68C162.88 166.056 162.272 165.576 161.536 165.24C160.8 164.904 160.04 164.736 159.256 164.736C158.296 164.736 157.424 164.92 156.64 165.288C155.872 165.64 155.208 166.128 154.648 166.752C154.104 167.376 153.68 168.112 153.376 168.96C153.072 169.792 152.92 170.688 152.92 171.648C152.92 172.544 153.064 173.392 153.352 174.192C153.64 174.992 154.056 175.696 154.6 176.304C155.144 176.912 155.808 177.392 156.592 177.744C157.376 178.096 158.264 178.272 159.256 178.272C160.232 178.272 161.088 178.072 161.824 177.672C162.56 177.272 163.184 176.712 163.696 175.992L165.64 177.456C165.512 177.632 165.288 177.888 164.968 178.224C164.648 178.544 164.224 178.872 163.696 179.208C163.168 179.528 162.528 179.808 161.776 180.048C161.04 180.304 160.184 180.432 159.208 180.432C157.864 180.432 156.648 180.176 155.56 179.664C154.488 179.152 153.568 178.48 152.8 177.648C152.048 176.816 151.472 175.88 151.072 174.84C150.672 173.784 150.472 172.72 150.472 171.648C150.472 170.336 150.688 169.128 151.12 168.024C151.552 166.904 152.152 165.944 152.92 165.144C153.704 164.328 154.64 163.696 155.728 163.248C156.816 162.8 158.016 162.576 159.328 162.576C160.448 162.576 161.544 162.792 162.616 163.224C163.704 163.656 164.592 164.32 165.28 165.216L163.36 166.68Z" fill="white"/>
</g>
<g filter="url(#filter1_b_738_4981)">
<rect x="257" width="292" height="53" rx="5" fill="white" fill-opacity="0.55"/>
<path d="M334.512 17.008H336.6L343.872 34H341.184L339.48 29.8H331.392L329.712 34H327.024L334.512 17.008ZM338.64 27.784L335.472 19.984H335.424L332.208 27.784H338.64ZM346.082 17.008H348.386V31.84H356.186V34H346.082V17.008ZM358.528 17.008H360.832V31.84H368.632V34H358.528V17.008ZM372.965 17.008V27.424C372.965 27.952 373.037 28.504 373.181 29.08C373.325 29.64 373.565 30.16 373.901 30.64C374.237 31.12 374.677 31.512 375.221 31.816C375.765 32.12 376.437 32.272 377.237 32.272C378.037 32.272 378.709 32.12 379.253 31.816C379.797 31.512 380.237 31.12 380.573 30.64C380.909 30.16 381.149 29.64 381.293 29.08C381.437 28.504 381.509 27.952 381.509 27.424V17.008H383.813V27.784C383.813 28.776 383.645 29.68 383.309 30.496C382.973 31.296 382.509 31.992 381.917 32.584C381.325 33.176 380.629 33.632 379.829 33.952C379.029 34.272 378.165 34.432 377.237 34.432C376.309 34.432 375.445 34.272 374.645 33.952C373.845 33.632 373.149 33.176 372.557 32.584C371.965 31.992 371.501 31.296 371.165 30.496C370.829 29.68 370.661 28.776 370.661 27.784V17.008H372.965ZM387.704 17.008H391.136L396.536 29.872H396.632L401.984 17.008H405.416V34H403.112V20.032H403.064L397.328 34H395.792L390.056 20.032H390.008V34H387.704V17.008ZM409.622 17.008H411.926V34H409.622V17.008ZM416.301 17.008H419.325L428.685 30.976H428.733V17.008H431.037V34H428.109L418.653 20.032H418.605V34H416.301V17.008ZM435.403 17.008H437.707V34H435.403V17.008ZM444.074 17.008V27.424C444.074 27.952 444.146 28.504 444.29 29.08C444.434 29.64 444.674 30.16 445.01 30.64C445.346 31.12 445.786 31.512 446.33 31.816C446.874 32.12 447.546 32.272 448.346 32.272C449.146 32.272 449.818 32.12 450.362 31.816C450.906 31.512 451.346 31.12 451.682 30.64C452.018 30.16 452.258 29.64 452.402 29.08C452.546 28.504 452.618 27.952 452.618 27.424V17.008H454.922V27.784C454.922 28.776 454.754 29.68 454.418 30.496C454.082 31.296 453.618 31.992 453.026 32.584C452.434 33.176 451.738 33.632 450.938 33.952C450.138 34.272 449.274 34.432 448.346 34.432C447.418 34.432 446.554 34.272 445.754 33.952C444.954 33.632 444.258 33.176 443.666 32.584C443.074 31.992 442.61 31.296 442.274 30.496C441.938 29.68 441.77 28.776 441.77 27.784V17.008H444.074ZM458.813 17.008H462.245L467.645 29.872H467.741L473.093 17.008H476.525V34H474.221V20.032H474.173L468.437 34H466.901L461.165 20.032H461.117V34H458.813V17.008Z" fill="white"/>
</g>
<g filter="url(#filter2_b_738_4981)">
<rect x="237" y="73" width="227" height="53" rx="5" fill="#DB162F" fill-opacity="0.55"/>
<path d="M309.184 90.008H311.488V97.064H320.296V90.008H322.6V107H320.296V99.224H311.488V107H309.184V90.008ZM330.981 99.752L324.549 90.008H327.501L332.133 97.472L336.909 90.008H339.717L333.285 99.752V107H330.981V99.752ZM341.668 90.008H347.572C348.308 90.008 348.988 90.096 349.612 90.272C350.252 90.448 350.796 90.712 351.244 91.064C351.708 91.4 352.068 91.84 352.324 92.384C352.596 92.912 352.732 93.536 352.732 94.256C352.732 95.232 352.46 96.032 351.916 96.656C351.372 97.264 350.668 97.712 349.804 98V98.048C350.316 98.08 350.796 98.216 351.244 98.456C351.692 98.68 352.076 98.984 352.396 99.368C352.732 99.736 352.996 100.168 353.188 100.664C353.38 101.16 353.476 101.696 353.476 102.272C353.476 103.04 353.316 103.72 352.996 104.312C352.692 104.888 352.268 105.376 351.724 105.776C351.18 106.176 350.548 106.48 349.828 106.688C349.108 106.896 348.332 107 347.5 107H341.668V90.008ZM343.972 97.064H347.116C347.548 97.064 347.956 97.024 348.34 96.944C348.724 96.848 349.06 96.696 349.348 96.488C349.636 96.28 349.86 96.016 350.02 95.696C350.196 95.376 350.284 94.984 350.284 94.52C350.284 93.848 350.068 93.264 349.636 92.768C349.204 92.272 348.524 92.024 347.596 92.024H343.972V97.064ZM343.972 104.984H347.356C347.708 104.984 348.092 104.952 348.508 104.888C348.94 104.808 349.34 104.664 349.708 104.456C350.076 104.232 350.388 103.936 350.644 103.568C350.9 103.2 351.028 102.712 351.028 102.104C351.028 101.096 350.7 100.344 350.044 99.848C349.388 99.336 348.5 99.08 347.38 99.08H343.972V104.984ZM356.786 90.008H362.762C363.85 90.008 364.746 90.16 365.45 90.464C366.154 90.752 366.706 91.128 367.106 91.592C367.522 92.04 367.81 92.552 367.97 93.128C368.13 93.688 368.21 94.232 368.21 94.76C368.21 95.304 368.114 95.832 367.922 96.344C367.73 96.84 367.45 97.296 367.082 97.712C366.73 98.112 366.29 98.456 365.762 98.744C365.25 99.016 364.674 99.184 364.034 99.248L368.858 107H365.978L361.658 99.512H359.09V107H356.786V90.008ZM359.09 97.496H362.114C362.562 97.496 363.002 97.464 363.434 97.4C363.882 97.32 364.274 97.184 364.61 96.992C364.962 96.8 365.242 96.528 365.45 96.176C365.658 95.808 365.762 95.336 365.762 94.76C365.762 94.184 365.658 93.72 365.45 93.368C365.242 93 364.962 92.72 364.61 92.528C364.274 92.336 363.882 92.208 363.434 92.144C363.002 92.064 362.562 92.024 362.114 92.024H359.09V97.496ZM371.457 90.008H373.761V107H371.457V90.008ZM377.753 90.008H383.681C384.881 90.008 385.929 90.144 386.825 90.416C387.737 90.688 388.521 91.056 389.177 91.52C389.849 91.968 390.401 92.488 390.833 93.08C391.281 93.672 391.633 94.28 391.889 94.904C392.145 95.528 392.329 96.152 392.441 96.776C392.553 97.4 392.609 97.976 392.609 98.504C392.609 99.592 392.409 100.648 392.009 101.672C391.609 102.68 391.017 103.584 390.233 104.384C389.449 105.168 388.473 105.8 387.305 106.28C386.153 106.76 384.817 107 383.297 107H377.753V90.008ZM380.057 104.84H382.961C383.937 104.84 384.857 104.712 385.721 104.456C386.601 104.184 387.369 103.784 388.025 103.256C388.681 102.728 389.201 102.072 389.585 101.288C389.969 100.488 390.161 99.56 390.161 98.504C390.161 97.96 390.073 97.328 389.897 96.608C389.721 95.872 389.385 95.176 388.889 94.52C388.409 93.864 387.737 93.312 386.873 92.864C386.009 92.4 384.889 92.168 383.513 92.168H380.057V104.84Z" fill="white"/>
</g>
<path d="M27.76 4.72C30.5227 4.72 31.904 5.98933 31.904 8.528C31.904 11.1307 30.3787 12.432 27.328 12.432H24.64V16H23.296V4.72H27.76ZM27.248 11.184C29.424 11.184 30.512 10.304 30.512 8.544C30.512 6.82667 29.5413 5.968 27.6 5.968H24.64V11.184H27.248ZM33.9117 16V7.344H35.1757V8.656C35.4424 8.208 35.8157 7.85067 36.2957 7.584C36.7757 7.30667 37.3357 7.168 37.9757 7.168C38.4024 7.168 38.7384 7.22133 38.9837 7.328V8.72C38.5464 8.54933 38.1251 8.464 37.7197 8.464C36.9944 8.464 36.3864 8.75733 35.8957 9.344C35.4157 9.92 35.1757 10.704 35.1757 11.696V16H33.9117ZM41.6385 6.16C41.3612 6.16 41.1265 6.064 40.9345 5.872C40.7425 5.68 40.6465 5.45067 40.6465 5.184C40.6465 4.91733 40.7425 4.69333 40.9345 4.512C41.1265 4.32 41.3612 4.224 41.6385 4.224C41.9052 4.224 42.1292 4.32 42.3105 4.512C42.5025 4.69333 42.5985 4.91733 42.5985 5.184C42.5985 5.45067 42.5025 5.68 42.3105 5.872C42.1292 6.064 41.9052 6.16 41.6385 6.16ZM40.9505 16V7.344H42.2625V16H40.9505ZM49.131 16.144C47.7123 16.144 46.5923 15.7387 45.771 14.928C44.9603 14.1173 44.555 13.024 44.555 11.648C44.555 10.2933 44.9763 9.21067 45.819 8.4C46.6723 7.58933 47.803 7.184 49.211 7.184C49.9363 7.184 50.6137 7.328 51.243 7.616C51.883 7.89333 52.395 8.272 52.779 8.752L51.883 9.632C51.595 9.25867 51.211 8.96 50.731 8.736C50.251 8.50133 49.7443 8.384 49.211 8.384C48.1977 8.384 47.3923 8.68267 46.795 9.28C46.1977 9.86667 45.899 10.656 45.899 11.648C45.899 12.6507 46.1923 13.4507 46.779 14.048C47.3657 14.6453 48.1497 14.944 49.131 14.944C49.7283 14.944 50.267 14.8267 50.747 14.592C51.2377 14.3573 51.6323 14.0533 51.931 13.68L52.843 14.544C52.4483 15.0453 51.9257 15.44 51.275 15.728C50.6243 16.0053 49.9097 16.144 49.131 16.144ZM63.3476 11.712V12.064H55.8436C55.9396 12.96 56.2863 13.6693 56.8836 14.192C57.481 14.7147 58.233 14.976 59.1396 14.976C60.3983 14.976 61.385 14.544 62.0996 13.68L63.0116 14.432C62.1476 15.584 60.8356 16.16 59.0756 16.16C57.6996 16.16 56.5956 15.7547 55.7636 14.944C54.9316 14.1227 54.5156 13.024 54.5156 11.648C54.5156 10.2933 54.921 9.21067 55.7316 8.4C56.5423 7.57867 57.5983 7.168 58.8996 7.168C60.329 7.168 61.4276 7.584 62.1956 8.416C62.9636 9.23733 63.3476 10.336 63.3476 11.712ZM58.9156 8.352C58.1263 8.352 57.4543 8.58667 56.8996 9.056C56.345 9.51467 56.0036 10.1493 55.8756 10.96H61.9876C61.9023 10.16 61.5983 9.52533 61.0756 9.056C60.5636 8.58667 59.8436 8.352 58.9156 8.352Z" fill="white"/>
<defs>
<filter id="filter0_b_738_4981" x="10" y="106" width="267" height="133" filterUnits="userSpaceOnUse" color-interpolation-filters="sRGB">
<feFlood flood-opacity="0" result="BackgroundImageFix"/>
<feGaussianBlur in="BackgroundImageFix" stdDeviation="20"/>
<feComposite in2="SourceAlpha" operator="in" result="effect1_backgroundBlur_738_4981"/>
<feBlend mode="normal" in="SourceGraphic" in2="effect1_backgroundBlur_738_4981" result="shape"/>
</filter>
<filter id="filter1_b_738_4981" x="217" y="-40" width="372" height="133" filterUnits="userSpaceOnUse" color-interpolation-filters="sRGB">
<feFlood flood-opacity="0" result="BackgroundImageFix"/>
<feGaussianBlur in="BackgroundImageFix" stdDeviation="20"/>
<feComposite in2="SourceAlpha" operator="in" result="effect1_backgroundBlur_738_4981"/>
<feBlend mode="normal" in="SourceGraphic" in2="effect1_backgroundBlur_738_4981" result="shape"/>
</filter>
<filter id="filter2_b_738_4981" x="197" y="33" width="307" height="133" filterUnits="userSpaceOnUse" color-interpolation-filters="sRGB">
<feFlood flood-opacity="0" result="BackgroundImageFix"/>
<feGaussianBlur in="BackgroundImageFix" stdDeviation="20"/>
<feComposite in2="SourceAlpha" operator="in" result="effect1_backgroundBlur_738_4981"/>
<feBlend mode="normal" in="SourceGraphic" in2="effect1_backgroundBlur_738_4981" result="shape"/>
</filter>
</defs>
</svg>
