<svg width="80" height="80" viewBox="0 0 80 80" fill="none" xmlns="http://www.w3.org/2000/svg">
<circle cx="40" cy="40" r="40" fill="#182D3B"/>
<path d="M45.8592 43.0471L45.5626 43.2628L45.9045 43.3953C51.7755 45.6703 55.8 51.0957 55.8 57.167C55.8 57.5021 55.5183 57.7838 55.1833 57.7838H24.8167C24.4817 57.7838 24.2 57.5021 24.2 57.167C24.2 51.0962 28.224 45.6708 34.1689 43.3956L34.5132 43.2639L34.2151 43.0471C31.8144 41.3011 30.3624 38.5387 30.3624 35.6357C30.3624 34.3803 30.4363 33.2031 30.5828 32.2508L30.6183 32.0204H30.3851H28.6775C28.3425 32.0204 28.0608 31.7387 28.0608 31.4037V27.8399C28.0608 27.5049 28.3425 27.2232 28.6775 27.2232H30.0882H30.2521L30.2843 27.0624C31.0124 23.4217 33.7065 20.438 37.2707 19.4197L37.4158 19.3782V19.2274V17.8167C37.4158 17.4817 37.6975 17.2 38.0325 17.2H42.116C42.451 17.2 42.7327 17.4817 42.7327 17.8167V19.2274V19.3782L42.8778 19.4197C46.442 20.438 49.1361 23.4217 49.8642 27.0624L49.8964 27.2232H50.0603H51.471C51.806 27.2232 52.0877 27.5049 52.0877 27.8399V31.4037C52.0877 31.7387 51.806 32.0204 51.471 32.0204H49.6891H49.456L49.4914 32.2508C49.638 33.2033 49.7118 34.3064 49.7118 35.6357C49.7118 38.5387 48.2599 41.3011 45.8592 43.0471ZM29.22 30.587V30.787H29.42H31.3503H40.0371H48.7239H50.6543H50.8543V30.587V28.7309V28.5309H50.6543H49.3179C49.2445 28.5309 49.1962 28.5301 49.134 28.5114C49.0704 28.4924 48.98 28.4502 48.8439 28.3481L48.8295 28.3373L48.8133 28.3292C48.782 28.3136 48.7332 28.271 48.6912 28.201C48.6504 28.1331 48.6269 28.0569 48.6269 27.9884V27.9768L48.6256 27.9653C48.2451 24.6935 45.9641 21.9603 42.9287 20.822L42.6585 20.7207V21.0093V26.1322C42.6585 26.4673 42.3768 26.749 42.0418 26.749C41.7067 26.749 41.4251 26.4673 41.4251 26.1322V18.6334V18.4334H41.2251H38.7749H38.5749V18.6334V26.2065C38.5749 26.5415 38.2933 26.8232 37.9582 26.8232C37.6232 26.8232 37.3415 26.5415 37.3415 26.2065V21.0093V20.7207L37.0713 20.822C34.0426 21.9578 31.7649 24.6815 31.377 27.9437C31.3456 28.0319 31.3002 28.1226 31.2531 28.201C31.2011 28.2876 31.1552 28.3462 31.1347 28.3667C31.0722 28.4291 31.0177 28.468 30.9629 28.4924C30.9088 28.5164 30.8444 28.5309 30.7564 28.5309H29.42H29.22V28.7309V30.587ZM25.5083 56.2604L25.4912 56.4761H25.7077H54.3666H54.5802L54.5662 56.263C54.1887 50.5249 49.8132 45.558 43.7979 44.0542L43.798 44.054L43.7886 44.0521C43.4893 43.9923 43.2812 43.7612 43.2812 43.5058C43.2812 43.4036 43.3211 43.2728 43.3993 43.1478C43.4766 43.0241 43.5804 42.9235 43.6887 42.8688C46.5738 41.5013 48.4042 38.7615 48.4042 35.6357C48.4042 34.2922 48.3296 33.1679 48.1791 32.19L48.153 32.0204H47.9814H40.0371H32.0928H31.9212L31.8951 32.19C31.7447 33.1679 31.6701 34.2922 31.6701 35.6357C31.6701 38.7623 33.5013 41.5026 36.3877 42.8698L36.3875 42.8702L36.399 42.8748C36.5483 42.9345 36.6421 43.0188 36.7009 43.1168C36.7586 43.2129 36.7903 43.3354 36.7929 43.486C36.7261 43.7928 36.5494 43.9994 36.2856 44.0521L36.2856 44.0519L36.2763 44.0542C30.259 45.5586 25.961 50.5263 25.5083 56.2604Z" fill="white" stroke="#182D3B" stroke-width="0.4"/>
</svg>
