<svg width="80" height="80" viewBox="0 0 80 80" fill="none" xmlns="http://www.w3.org/2000/svg">
<circle cx="40" cy="40" r="40" fill="#182D3B"/>
<path d="M50.7897 54.2389C50.8603 53.5332 50.6097 52.8405 50.1021 52.3381L44.7907 47.0808C44.249 46.5446 43.5357 46.3133 42.782 46.4296L40.0075 46.8586C39.4869 46.9391 39.0023 46.725 38.7112 46.2862C37.6306 44.6567 36.7279 42.897 36.0283 41.0557C36.0282 41.0555 36.028 41.0551 36.0279 41.0549C35.3249 39.2149 34.8276 37.3006 34.5497 35.3653C34.4748 34.8439 34.6941 34.3617 35.1362 34.0754L37.4928 32.5491C38.1326 32.1345 38.5111 31.4871 38.5585 30.7264L39.0245 23.2676C39.069 22.5548 38.795 21.8709 38.2728 21.3913C37.7506 20.9115 37.0459 20.6965 36.3393 20.8013L32.04 21.4387C29.8641 21.7614 28.1938 23.3663 27.7848 25.5275C26.6496 31.5243 27.2359 37.7577 29.4781 43.5483C31.66 49.3678 35.3706 54.4105 40.2088 58.1312C40.5407 58.3865 40.8933 58.5963 41.2593 58.7603C42.8163 59.4581 44.6171 59.3287 46.1059 58.3512L49.7393 55.966C50.3363 55.574 50.7192 54.9445 50.7897 54.2389ZM49.1733 55.1039L45.5399 57.4892C44.0735 58.4518 42.2277 58.3829 40.8374 57.3138C36.152 53.7105 32.5579 48.8253 30.4417 43.1811C28.2671 37.565 27.6987 31.5268 28.798 25.7192C29.1242 23.996 30.4561 22.7162 32.1913 22.4589L36.4906 21.8213C36.7456 21.7835 36.9998 21.8194 37.2265 21.921C37.3528 21.9776 37.4707 22.0547 37.5752 22.1507C37.8672 22.419 38.0203 22.8026 37.9952 23.2034L37.5294 30.6622C37.5024 31.0947 37.2959 31.4479 36.9322 31.6836L34.5757 33.2098C33.7985 33.7132 33.3974 34.5953 33.529 35.5119C33.8177 37.5227 34.3343 39.5113 35.0646 41.4225C35.7914 43.335 36.7291 45.1631 37.8519 46.8562C38.3637 47.6279 39.25 48.0193 40.1652 47.8779L42.9396 47.4489C43.368 47.3827 43.7573 47.5089 44.0652 47.8138L49.3767 53.0711C49.6621 53.3535 49.8031 53.7417 49.7637 54.1363C49.7241 54.5308 49.509 54.8835 49.1733 55.1039Z" fill="white"/>
</svg>
