<svg width="80" height="80" viewBox="0 0 80 80" fill="none" xmlns="http://www.w3.org/2000/svg">
<circle cx="40" cy="40" r="40" fill="#182D3B"/>
<path d="M48.5181 20.4622L48.518 20.4622L48.52 20.4642L56.1799 28.124C56.2084 28.1563 56.2464 28.2285 56.2771 28.3362C56.3071 28.4412 56.3214 28.5488 56.3214 28.6218V57.3614C56.3214 58.8105 55.1466 59.9853 53.6975 59.9853H26.874C25.4248 59.9853 24.25 58.8105 24.25 57.3614V22.874C24.25 21.4248 25.4248 20.25 26.874 20.25H47.9496C47.9995 20.25 48.1166 20.2719 48.2495 20.3199C48.3856 20.3691 48.4821 20.4254 48.5181 20.4622ZM49.0843 23.0995L48.6576 22.6728V23.2763V26.7059C48.6576 27.373 49.1984 27.9139 49.8655 27.9139H53.2951H53.8987L53.4719 27.4871L49.0843 23.0995ZM47.2416 21.916V21.666H46.9916H26.874C26.2068 21.666 25.666 22.2068 25.666 22.874V57.3614C25.666 58.0285 26.2068 58.5693 26.874 58.5693H53.6975C54.3646 58.5693 54.9055 58.0285 54.9055 57.3614V29.5798V29.3298H54.6555H49.8655C48.4164 29.3298 47.2416 28.155 47.2416 26.7059V21.916ZM31.9139 30.5378C31.9139 30.1468 32.2309 29.8298 32.6219 29.8298H42.2017C42.5927 29.8298 42.9097 30.1468 42.9097 30.5378C42.9097 30.9288 42.5927 31.2458 42.2017 31.2458H32.6219C32.2309 31.2458 31.9139 30.9288 31.9139 30.5378ZM50.5735 40.1177C50.5735 40.5086 50.2565 40.8256 49.8655 40.8256H32.6219C32.2309 40.8256 31.9139 40.5086 31.9139 40.1177C31.9139 39.7267 32.2309 39.4097 32.6219 39.4097H49.8655C50.2565 39.4097 50.5735 39.7267 50.5735 40.1177ZM50.5735 49.6975C50.5735 50.0885 50.2565 50.4055 49.8655 50.4055H32.6219C32.2309 50.4055 31.9139 50.0885 31.9139 49.6975C31.9139 49.3065 32.2309 48.9895 32.6219 48.9895H49.8655C50.2565 48.9895 50.5735 49.3065 50.5735 49.6975Z" fill="white" stroke="#182D3B" stroke-width="0.5"/>
</svg>
